<?xml version="1.0" standalone="no"?>
<!DOCTYPE svg PUBLIC "-//W3C//DTD SVG 20010904//EN"
 "http://www.w3.org/TR/2001/REC-SVG-20010904/DTD/svg10.dtd">
<svg version="1.0" xmlns="http://www.w3.org/2000/svg"
 width="1024.000000pt" height="1024.000000pt" viewBox="0 0 1024.000000 1024.000000"
 preserveAspectRatio="xMidYMid meet">
<metadata>
Created by potrace 1.14, written by Peter Selinger 2001-2017
</metadata>
<g transform="translate(0.000000,1024.000000) scale(0.100000,-0.100000)"
fill="#000000" stroke="none">
<path d="M2900 7253 c-161 -27 -319 -142 -391 -285 -62 -123 -59 -39 -59
-1575 0 -973 3 -1418 11 -1455 18 -86 76 -193 139 -258 67 -67 129 -106 220
-137 l65 -22 -482 -1 -483 0 0 -270 0 -270 3200 0 3200 0 0 270 0 270 -482 0
-483 1 65 22 c91 31 153 70 220 137 63 65 121 172 139 258 8 37 11 482 11
1455 0 1546 4 1455 -62 1581 -39 73 -144 181 -215 219 -28 15 -86 36 -129 47
-76 20 -116 20 -2268 19 -1205 -1 -2202 -4 -2216 -6z m4350 -1863 l0 -1330
-2130 0 -2130 0 0 1330 0 1330 2130 0 2130 0 0 -1330z"/>
</g>
</svg>
